<?xml version="1.0" standalone="no"?><?xml-stylesheet type="text/css" href="https://www.processon.com/themes/default/mind/icons/icons.css" ?><!DOCTYPE svg PUBLIC "-//W3C//DTD SVG 1.1//EN" "http://www.w3.org/Graphics/SVG/1.1/DTD/svg11.dtd"><svg id="SvgjsSvg1000" xmlns="http://www.w3.org/2000/svg" version="1.1" xmlns:xlink="http://www.w3.org/1999/xlink" xmlns:svgjs="http://svgjs.com/svgjs" width="1060" height="1143"><rect fill="url(#pattern_mark)" transform="translate(43,2)" width="1050" height="1500" id="rect_mark" pointer-events="none"></rect><defs id="SvgjsDefs1001"><marker id="SvgjsMarker1019" markerWidth="14" markerHeight="10" refX="10" refY="5" viewBox="0 0 14 10" orient="auto" markerUnits="userSpaceOnUse" stroke-dasharray="0,0"><path id="SvgjsPath1020" d="M0 0L14 5L0 10L0 0 " fill="#323232" stroke="#323232" stroke-width="1"></path></marker><marker id="SvgjsMarker1069" markerWidth="14" markerHeight="10" refX="10" refY="5" viewBox="0 0 14 10" orient="auto" markerUnits="userSpaceOnUse" stroke-dasharray="0,0"><path id="SvgjsPath1070" d="M0 0L14 5L0 10L0 0 " fill="#323232" stroke="#323232" stroke-width="1"></path></marker><marker id="SvgjsMarker1079" markerWidth="14" markerHeight="10" refX="10" refY="5" viewBox="0 0 14 10" orient="auto" markerUnits="userSpaceOnUse" stroke-dasharray="0,0"><path id="SvgjsPath1080" d="M0 0L14 5L0 10L0 0 " fill="#323232" stroke="#323232" stroke-width="1"></path></marker><marker id="SvgjsMarker1093" markerWidth="14" markerHeight="10" refX="10" refY="5" viewBox="0 0 14 10" orient="auto" markerUnits="userSpaceOnUse" stroke-dasharray="0,0"><path id="SvgjsPath1094" d="M0 0L14 5L0 10L0 0 " fill="#323232" stroke="#323232" stroke-width="1"></path></marker><marker id="SvgjsMarker1101" markerWidth="14" markerHeight="10" refX="10" refY="5" viewBox="0 0 14 10" orient="auto" markerUnits="userSpaceOnUse" stroke-dasharray="0,0"><path id="SvgjsPath1102" d="M0 0L14 5L0 10L0 0 " fill="#323232" stroke="#323232" stroke-width="1"></path></marker><marker id="SvgjsMarker1113" markerWidth="14" markerHeight="10" refX="10" refY="5" viewBox="0 0 14 10" orient="auto" markerUnits="userSpaceOnUse" stroke-dasharray="0,0"><path id="SvgjsPath1114" d="M0 0L14 5L0 10L0 0 " fill="#323232" stroke="#323232" stroke-width="1"></path></marker><marker id="SvgjsMarker1123" markerWidth="14" markerHeight="10" refX="10" refY="5" viewBox="0 0 14 10" orient="auto" markerUnits="userSpaceOnUse" stroke-dasharray="0,0"><path id="SvgjsPath1124" d="M0 0L14 5L0 10L0 0 " fill="#323232" stroke="#323232" stroke-width="1"></path></marker><marker id="SvgjsMarker1135" markerWidth="14" markerHeight="10" refX="10" refY="5" viewBox="0 0 14 10" orient="auto" markerUnits="userSpaceOnUse" stroke-dasharray="0,0"><path id="SvgjsPath1136" d="M0 0L14 5L0 10L0 0 " fill="#323232" stroke="#323232" stroke-width="1"></path></marker><marker id="SvgjsMarker1151" markerWidth="14" markerHeight="10" refX="10" refY="5" viewBox="0 0 14 10" orient="auto" markerUnits="userSpaceOnUse" stroke-dasharray="0,0"><path id="SvgjsPath1152" d="M0 0L14 5L0 10L0 0 " fill="#323232" stroke="#323232" stroke-width="1"></path></marker><marker id="SvgjsMarker1161" markerWidth="14" markerHeight="10" refX="10" refY="5" viewBox="0 0 14 10" orient="auto" markerUnits="userSpaceOnUse" stroke-dasharray="0,0"><path id="SvgjsPath1162" d="M0 0L14 5L0 10L0 0 " fill="#323232" stroke="#323232" stroke-width="1"></path></marker><marker id="SvgjsMarker1177" markerWidth="14" markerHeight="10" refX="10" refY="5" viewBox="0 0 14 10" orient="auto" markerUnits="userSpaceOnUse" stroke-dasharray="0,0"><path id="SvgjsPath1178" d="M0 0L14 5L0 10L0 0 " fill="#323232" stroke="#323232" stroke-width="1"></path></marker><marker id="SvgjsMarker1187" markerWidth="14" markerHeight="10" refX="10" refY="5" viewBox="0 0 14 10" orient="auto" markerUnits="userSpaceOnUse" stroke-dasharray="0,0"><path id="SvgjsPath1188" d="M0 0L14 5L0 10L0 0 " fill="#323232" stroke="#323232" stroke-width="1"></path></marker><marker id="SvgjsMarker1199" markerWidth="14" markerHeight="10" refX="10" refY="5" viewBox="0 0 14 10" orient="auto" markerUnits="userSpaceOnUse" stroke-dasharray="0,0"><path id="SvgjsPath1200" d="M0 0L14 5L0 10L0 0 " fill="#323232" stroke="#323232" stroke-width="1"></path></marker><marker id="SvgjsMarker1215" markerWidth="14" markerHeight="10" refX="10" refY="5" viewBox="0 0 14 10" orient="auto" markerUnits="userSpaceOnUse" stroke-dasharray="0,0"><path id="SvgjsPath1216" d="M0 0L14 5L0 10L0 0 " fill="#323232" stroke="#323232" stroke-width="1"></path></marker><marker id="SvgjsMarker1229" markerWidth="14" markerHeight="10" refX="10" refY="5" viewBox="0 0 14 10" orient="auto" markerUnits="userSpaceOnUse" stroke-dasharray="0,0"><path id="SvgjsPath1230" d="M0 0L14 5L0 10L0 0 " fill="#323232" stroke="#323232" stroke-width="1"></path></marker><marker id="SvgjsMarker1265" markerWidth="14" markerHeight="10" refX="10" refY="5" viewBox="0 0 14 10" orient="auto" markerUnits="userSpaceOnUse" stroke-dasharray="0,0"><path id="SvgjsPath1266" d="M0 0L14 5L0 10L0 0 " fill="#323232" stroke="#323232" stroke-width="1"></path></marker><pattern patternUnits="userSpaceOnUse" id="pattern_mark" width="300" height="300"><text x="-50" y="150" fill="rgba(229,229,229,0.8)" font-size="18" transform="rotate(-45, 150, 150)"></text></pattern></defs><g id="svgbackgroundid"><defs></defs><rect x="0" y="0" width="1060" height="1143" fill="#ffffff"></rect></g><g id="SvgjsG1007" transform="translate(59,95)"><path id="SvgjsPath1008" d="M0 0L286 0L286 75L0 75Z " stroke="rgba(50,50,50,1)" stroke-width="2" fill-opacity="1" fill="#ffffff"></path><g id="SvgjsG1009"><text id="SvgjsText1010" font-family="微软雅黑" text-anchor="middle" font-size="13px" width="266px" fill="#323232" font-weight="400" align="middle" lineheight="125%" font-style="" opacity="1" y="10.875" transform="rotate(0)"><tspan id="SvgjsTspan1011" dy="16" x="143"><tspan id="SvgjsTspan1012" style="text-decoration:;">https://sso.dlut.edu.cn/cas/login?</tspan></tspan><tspan id="SvgjsTspan1013" dy="16" x="143"><tspan id="SvgjsTspan1014" style="text-decoration:;">service=http://seat.lib.dlut.edu.cn/yanxiuji</tspan></tspan><tspan id="SvgjsTspan1015" dy="16" x="143"><tspan id="SvgjsTspan1016" style="text-decoration:;">an/client/login.php?redirect=index.php</tspan></tspan></text></g></g><g id="SvgjsG1017"><path id="SvgjsPath1018" d="M346 132.5L419 132.5L419 132.5L493 132.5 " stroke="#323232" stroke-width="2" fill="none" marker-end="url(#SvgjsMarker1019)"></path><rect id="SvgjsRect1021" width="24" height="16" x="407.5" y="124.49999999999997" fill="#ffffff"></rect><text id="SvgjsText1022" font-family="微软雅黑" text-anchor="middle" font-size="13px" width="24px" fill="#323232" font-weight="400" align="top" lineheight="16px" font-style="" opacity="1" y="121.87499999999997" transform="rotate(0)"><tspan id="SvgjsTspan1023" dy="16" x="419.5"><tspan id="SvgjsTspan1024" style="text-decoration:;">GET</tspan></tspan></text></g><g id="SvgjsG1025" transform="translate(517,25)"><path id="SvgjsPath1026" d="M0 0L214 0L214 70L0 70Z " stroke="rgba(50,50,50,1)" stroke-width="2" fill-opacity="1" fill="#ffffff"></path><g id="SvgjsG1027"><text id="SvgjsText1028" font-family="微软雅黑" text-anchor="middle" font-size="13px" width="194px" fill="#323232" font-weight="400" align="middle" lineheight="125%" font-style="" opacity="1" y="16.375" transform="rotate(0)"><tspan id="SvgjsTspan1029" dy="16" x="107"><tspan id="SvgjsTspan1030" style="text-decoration:;">提取lt-*-cas随机校验量，校验量</tspan></tspan><tspan id="SvgjsTspan1031" dy="16" x="107"><tspan id="SvgjsTspan1032" style="text-decoration:;">在网页源代码中（有用）</tspan></tspan></text></g></g><g id="SvgjsG1033" transform="translate(416,62.5)"><path id="SvgjsPath1034" d="M100 0Q91 0 91 9L91 61Q91 70 78 70Q91 70 91 79L91 131Q91 140 100 140 " stroke="rgba(50,50,50,1)" stroke-width="2" fill="none"></path><path id="SvgjsPath1035" d="M0 0L100 0L100 140L0 140Z " stroke="none" fill="none"></path><g id="SvgjsG1036"><text id="SvgjsText1037" font-family="微软雅黑" text-anchor="end" font-size="13px" width="73px" fill="#323232" font-weight="400" align="middle" lineheight="125%" font-style="" opacity="1" y="59.375" transform="rotate(0)"></text></g></g><g id="SvgjsG1038" transform="translate(517,162)"><path id="SvgjsPath1039" d="M0 0L214 0L214 78L0 78Z " stroke="rgba(50,50,50,1)" stroke-width="2" fill-opacity="1" fill="#ffffff"></path><g id="SvgjsG1040"><text id="SvgjsText1041" font-family="微软雅黑" text-anchor="middle" font-size="13px" width="194px" fill="#323232" font-weight="400" align="middle" lineheight="125%" font-style="" opacity="1" y="28.375" transform="rotate(0)"><tspan id="SvgjsTspan1042" dy="16" x="107"><tspan id="SvgjsTspan1043" style="text-decoration:;">共4个随机变量（ul,pl,sl,lt)）</tspan></tspan></text></g></g><g id="SvgjsG1044" transform="translate(771,62.5)"><path id="SvgjsPath1045" d="M0 134.5Q9 134.5 9 125.5L9 76.25Q9 67.25 22 67.25Q9 67.25 9 58.25L9 9Q9 0 0 0 " stroke="rgba(50,50,50,1)" stroke-width="2" fill="none"></path><path id="SvgjsPath1046" d="M0 0L217 0L217 134.5L0 134.5Z " stroke="none" fill="none"></path><g id="SvgjsG1047"><text id="SvgjsText1048" font-family="微软雅黑" text-anchor="start" font-size="13px" width="190px" fill="#323232" font-weight="400" align="middle" lineheight="125%" font-style="" opacity="1" y="40.625" transform="rotate(0)"><tspan id="SvgjsTspan1049" dy="16" x="27"><tspan id="SvgjsTspan1050" style="text-decoration:;">sso登录代码用sso文件夹里的</tspan></tspan><tspan id="SvgjsTspan1051" dy="16" x="27"><tspan id="SvgjsTspan1052" style="text-decoration:;">__init__和des来实现（现成的直</tspan></tspan><tspan id="SvgjsTspan1053" dy="16" x="27"><tspan id="SvgjsTspan1054" style="text-decoration:;">接用）</tspan></tspan></text></g></g><g id="SvgjsG1055" transform="translate(55,361)"><path id="SvgjsPath1056" d="M0 0L134 0L134 76L0 76Z " stroke="rgba(50,50,50,1)" stroke-width="2" fill-opacity="1" fill="#ffffff"></path><g id="SvgjsG1057"><text id="SvgjsText1058" font-family="微软雅黑" text-anchor="middle" font-size="13px" width="114px" fill="#323232" font-weight="400" align="middle" lineheight="125%" font-style="" opacity="1" y="27.375" transform="rotate(0)"><tspan id="SvgjsTspan1059" dy="16" x="67"><tspan id="SvgjsTspan1060" style="text-decoration:;">从文件读取配置</tspan></tspan></text></g></g><g id="SvgjsG1061" transform="translate(59,240)"><path id="SvgjsPath1062" d="M0 0L100 0L100 70L0 70Z " stroke="rgba(50,50,50,1)" stroke-width="2" fill-opacity="1" fill="#ffffff"></path><g id="SvgjsG1063"><text id="SvgjsText1064" font-family="微软雅黑" text-anchor="middle" font-size="13px" width="80px" fill="#323232" font-weight="400" align="middle" lineheight="125%" font-style="" opacity="1" y="24.375" transform="rotate(0)"><tspan id="SvgjsTspan1065" dy="16" x="50"><tspan id="SvgjsTspan1066" style="text-decoration:;">创建对照表</tspan></tspan></text></g></g><g id="SvgjsG1067"><path id="SvgjsPath1068" d="M109 311L109 335.5L122 335.5L122 357.4 " stroke="#323232" stroke-width="2" fill="none" marker-end="url(#SvgjsMarker1069)"></path></g><g id="SvgjsG1071" transform="translate(245,364)"><path id="SvgjsPath1072" d="M0 0L100 0L100 70L0 70Z " stroke="rgba(50,50,50,1)" stroke-width="2" fill-opacity="1" fill="#ffffff"></path><g id="SvgjsG1073"><text id="SvgjsText1074" font-family="微软雅黑" text-anchor="middle" font-size="13px" width="80px" fill="#323232" font-weight="400" align="middle" lineheight="125%" font-style="" opacity="1" y="24.375" transform="rotate(0)"><tspan id="SvgjsTspan1075" dy="16" x="50"><tspan id="SvgjsTspan1076" style="text-decoration:;">配置转换</tspan></tspan></text></g></g><g id="SvgjsG1077"><path id="SvgjsPath1078" d="M190 399L217 399L217 399L241.39999999999998 399 " stroke="#323232" stroke-width="2" fill="none" marker-end="url(#SvgjsMarker1079)"></path></g><g id="SvgjsG1081" transform="translate(396,364)"><path id="SvgjsPath1082" d="M0 0L335 0L335 70L0 70Z " stroke="rgba(50,50,50,1)" stroke-width="2" fill-opacity="1" fill="#ffffff"></path><g id="SvgjsG1083"><text id="SvgjsText1084" font-family="微软雅黑" text-anchor="middle" font-size="13px" width="315px" fill="#323232" font-weight="400" align="middle" lineheight="125%" font-style="" opacity="1" y="8.375" transform="rotate(0)"><tspan id="SvgjsTspan1085" dy="16" x="167.5"><tspan id="SvgjsTspan1086" style="text-decoration:;">/yanxiujian/client/orderRoomAction.php?</tspan></tspan><tspan id="SvgjsTspan1087" dy="16" x="167.5"><tspan id="SvgjsTspan1088" style="text-decoration:;">action=querySeatMap&amp;order_date=2022%2F4%2</tspan></tspan><tspan id="SvgjsTspan1089" dy="16" x="167.5"><tspan id="SvgjsTspan1090" style="text-decoration:;">F6&amp;room_id=209</tspan></tspan></text></g></g><g id="SvgjsG1091"><path id="SvgjsPath1092" d="M346 399L370.5 399L370.5 399L392.4 399 " stroke="#323232" stroke-width="2" fill="none" marker-end="url(#SvgjsMarker1093)"></path><rect id="SvgjsRect1095" width="24" height="16" x="357.2" y="391" fill="#ffffff"></rect><text id="SvgjsText1096" font-family="微软雅黑" text-anchor="middle" font-size="13px" width="24px" fill="#323232" font-weight="400" align="top" lineheight="16px" font-style="" opacity="1" y="388.375" transform="rotate(0)"><tspan id="SvgjsTspan1097" dy="16" x="369.2"><tspan id="SvgjsTspan1098" style="text-decoration:;">GET</tspan></tspan></text></g><g id="SvgjsG1099"><path id="SvgjsPath1100" d="M563.5 363L563.5 343L522.825 343L522.825 325.6 " stroke="#323232" stroke-width="2" fill="none" marker-end="url(#SvgjsMarker1101)"></path></g><g id="SvgjsG1103" transform="translate(381,259)"><path id="SvgjsPath1104" d="M0 0L305 0L305 63L0 63Z " stroke="rgba(50,50,50,1)" stroke-width="2" fill-opacity="1" fill="#ffffff"></path><g id="SvgjsG1105"><text id="SvgjsText1106" font-family="微软雅黑" text-anchor="middle" font-size="13px" width="285px" fill="#323232" font-weight="400" align="middle" lineheight="125%" font-style="" opacity="1" y="12.875" transform="rotate(0)"><tspan id="SvgjsTspan1107" dy="16" x="152.5"><tspan id="SvgjsTspan1108" style="text-decoration:;">order_date=日期（以/分隔%2F）</tspan></tspan><tspan id="SvgjsTspan1109" dy="16" x="152.5"><tspan id="SvgjsTspan1110" style="text-decoration:;">room_id=房间对应参数（老版map）</tspan></tspan></text></g></g><g id="SvgjsG1111"><path id="SvgjsPath1112" d="M732 399L764.5 399L764.5 399L794.4 399 " stroke="#323232" stroke-width="2" fill="none" marker-end="url(#SvgjsMarker1113)"></path></g><g id="SvgjsG1115" transform="translate(798,364)"><path id="SvgjsPath1116" d="M0 0L231 0L231 70L0 70Z " stroke="rgba(50,50,50,1)" stroke-width="2" fill-opacity="1" fill="#ffffff"></path><g id="SvgjsG1117"><text id="SvgjsText1118" font-family="微软雅黑" text-anchor="middle" font-size="13px" width="211px" fill="#323232" font-weight="400" align="middle" lineheight="125%" font-style="" opacity="1" y="24.375" transform="rotate(0)"><tspan id="SvgjsTspan1119" dy="16" x="115.5"><tspan id="SvgjsTspan1120" style="text-decoration:;">查找seat_label对应seat_id</tspan></tspan></text></g></g><g id="SvgjsG1121"><path id="SvgjsPath1122" d="M913.5 363L913.5 344.36607142857144L896 344.36607142857144L896 328.3321428571429 " stroke="#323232" stroke-width="2" fill="none" marker-end="url(#SvgjsMarker1123)"></path></g><g id="SvgjsG1125" transform="translate(757,245.5)"><path id="SvgjsPath1126" d="M0 0L278 0L278 76.5L0 76.5Z " stroke="rgba(50,50,50,1)" stroke-width="2" fill-opacity="1" fill="#ffffff"></path><g id="SvgjsG1127"><text id="SvgjsText1128" font-family="微软雅黑" text-anchor="middle" font-size="13px" width="258px" fill="#323232" font-weight="400" align="middle" lineheight="125%" font-style="" opacity="1" y="19.625" transform="rotate(0)"><tspan id="SvgjsTspan1129" dy="16" x="139"><tspan id="SvgjsTspan1130" style="text-decoration:;">查看对应seat_order_status</tspan></tspan><tspan id="SvgjsTspan1131" dy="16" x="139"><tspan id="SvgjsTspan1132" style="text-decoration:;">==1时才可预约</tspan></tspan></text></g></g><g id="SvgjsG1133"><path id="SvgjsPath1134" d="M913.5 435L913.5 463.5L911.5 463.5L911.5 489.4 " stroke="#323232" stroke-width="2" fill="none" marker-end="url(#SvgjsMarker1135)"></path><rect id="SvgjsRect1137" width="24" height="16" x="901.5" y="455.2" fill="#ffffff"></rect><text id="SvgjsText1138" font-family="微软雅黑" text-anchor="middle" font-size="13px" width="24px" fill="#323232" font-weight="400" align="top" lineheight="16px" font-style="" opacity="1" y="452.575" transform="rotate(0)"><tspan id="SvgjsTspan1139" dy="16" x="913.5"><tspan id="SvgjsTspan1140" style="text-decoration:;">GET</tspan></tspan></text></g><g id="SvgjsG1141" transform="translate(788,493)"><path id="SvgjsPath1142" d="M0 0L247 0L247 81L0 81Z " stroke="rgba(50,50,50,1)" stroke-width="2" fill-opacity="1" fill="#ffffff"></path><g id="SvgjsG1143"><text id="SvgjsText1144" font-family="微软雅黑" text-anchor="middle" font-size="13px" width="227px" fill="#323232" font-weight="400" align="middle" lineheight="125%" font-style="" opacity="1" y="21.875" transform="rotate(0)"><tspan id="SvgjsTspan1145" dy="16" x="123.5"><tspan id="SvgjsTspan1146" style="text-decoration:;">/yanxiujian/client/orderRoomAction</tspan></tspan><tspan id="SvgjsTspan1147" dy="16" x="123.5"><tspan id="SvgjsTspan1148" style="text-decoration:;">.php?action=checkSession</tspan></tspan></text></g></g><g id="SvgjsG1149"><path id="SvgjsPath1150" d="M911.5 575L911.5 587.0857142857143L913.5 587.0857142857143L913.5 596.5714285714286 " stroke="#323232" stroke-width="2" fill="none" marker-end="url(#SvgjsMarker1151)"></path></g><g id="SvgjsG1153" transform="translate(861.5,601)"><path id="SvgjsPath1154" d="M0 0L104 0L104 29L0 29Z " stroke="rgba(50,50,50,1)" stroke-width="2" fill-opacity="1" fill="#ffffff"></path><g id="SvgjsG1155"><text id="SvgjsText1156" font-family="微软雅黑" text-anchor="middle" font-size="13px" width="84px" fill="#323232" font-weight="400" align="middle" lineheight="125%" font-style="" opacity="1" y="3.875" transform="rotate(0)"><tspan id="SvgjsTspan1157" dy="16" x="52"><tspan id="SvgjsTspan1158" style="text-decoration:;">确认用户在线</tspan></tspan></text></g></g><g id="SvgjsG1159"><path id="SvgjsPath1160" d="M787 533.5L741 533.5L741 533.5L697.6 533.5 " stroke="#323232" stroke-width="2" fill="none" marker-end="url(#SvgjsMarker1161)"></path><rect id="SvgjsRect1163" width="34" height="16" x="725.3" y="525.5" fill="#ffffff"></rect><text id="SvgjsText1164" font-family="微软雅黑" text-anchor="middle" font-size="13px" width="34px" fill="#323232" font-weight="400" align="top" lineheight="16px" font-style="" opacity="1" y="522.875" transform="rotate(0)"><tspan id="SvgjsTspan1165" dy="16" x="742.3"><tspan id="SvgjsTspan1166" style="text-decoration:;">POST</tspan></tspan></text></g><g id="SvgjsG1167" transform="translate(286,498.5)"><path id="SvgjsPath1168" d="M0 0L408 0L408 70L0 70Z " stroke="rgba(50,50,50,1)" stroke-width="2" fill-opacity="1" fill="#ffffff"></path><g id="SvgjsG1169"><text id="SvgjsText1170" font-family="微软雅黑" text-anchor="middle" font-size="13px" width="388px" fill="#323232" font-weight="400" align="middle" lineheight="125%" font-style="" opacity="1" y="16.375" transform="rotate(0)"><tspan id="SvgjsTspan1171" dy="16" x="204"><tspan id="SvgjsTspan1172" style="text-decoration:;">/yanxiujian/client/orderRoomAction.php?action=seatChoose</tspan></tspan><tspan id="SvgjsTspan1173" dy="16" x="204"><tspan id="SvgjsTspan1174" style="text-decoration:;">POSTDATA=seat_id=20679&amp;order_date=2022%2F4%2F6</tspan></tspan></text></g></g><g id="SvgjsG1175"><path id="SvgjsPath1176" d="M490 569.5L490 582L490 582L490 591.9 " stroke="#323232" stroke-width="2" fill="none" marker-end="url(#SvgjsMarker1177)"></path></g><g id="SvgjsG1179" transform="translate(436,595.5)"><path id="SvgjsPath1180" d="M0 0L108 0L108 26L0 26Z " stroke="rgba(50,50,50,1)" stroke-width="2" fill-opacity="1" fill="#ffffff"></path><g id="SvgjsG1181"><text id="SvgjsText1182" font-family="微软雅黑" text-anchor="middle" font-size="13px" width="88px" fill="#323232" font-weight="400" align="middle" lineheight="125%" font-style="" opacity="1" y="2.375" transform="rotate(0)"><tspan id="SvgjsTspan1183" dy="16" x="54"><tspan id="SvgjsTspan1184" style="text-decoration:;">20679-&gt;306</tspan></tspan></text></g></g><g id="SvgjsG1185"><path id="SvgjsPath1186" d="M285 533.5L249 533.5L249 533.5L215.6 533.5 " stroke="#323232" stroke-width="2" fill="none" marker-end="url(#SvgjsMarker1187)"></path></g><g id="SvgjsG1189" transform="translate(79,498.5)"><path id="SvgjsPath1190" d="M0 0L133 0L133 70L0 70Z " stroke="rgba(50,50,50,1)" stroke-width="2" fill-opacity="1" fill="#ffffff"></path><g id="SvgjsG1191"><text id="SvgjsText1192" font-family="微软雅黑" text-anchor="middle" font-size="13px" width="113px" fill="#323232" font-weight="400" align="middle" lineheight="125%" font-style="" opacity="1" y="16.375" transform="rotate(0)"><tspan id="SvgjsTspan1193" dy="16" x="66.5"><tspan id="SvgjsTspan1194" style="text-decoration:;">在返回数据中提取</tspan></tspan><tspan id="SvgjsTspan1195" dy="16" x="66.5"><tspan id="SvgjsTspan1196" style="text-decoration:;">addCode</tspan></tspan></text></g></g><g id="SvgjsG1197"><path id="SvgjsPath1198" d="M78 533.5L49 533.5L49 677.4464285714286L75.4 677.4464285714286 " stroke="#323232" stroke-width="2" fill="none" marker-end="url(#SvgjsMarker1199)"></path><rect id="SvgjsRect1201" width="34" height="16" x="32" y="596.1732142857143" fill="#ffffff"></rect><text id="SvgjsText1202" font-family="微软雅黑" text-anchor="middle" font-size="13px" width="34px" fill="#323232" font-weight="400" align="top" lineheight="16px" font-style="" opacity="1" y="593.5482142857143" transform="rotate(0)"><tspan id="SvgjsTspan1203" dy="16" x="49"><tspan id="SvgjsTspan1204" style="text-decoration:;">POST</tspan></tspan></text></g><g id="SvgjsG1205" transform="translate(79,634.5)"><path id="SvgjsPath1206" d="M0 0L234 0L234 92.5L0 92.5Z " stroke="rgba(50,50,50,1)" stroke-width="2" fill-opacity="1" fill="#ffffff"></path><g id="SvgjsG1207"><text id="SvgjsText1208" font-family="微软雅黑" text-anchor="middle" font-size="13px" width="214px" fill="#323232" font-weight="400" align="middle" lineheight="125%" font-style="" opacity="1" y="27.625" transform="rotate(0)"><tspan id="SvgjsTspan1209" dy="16" x="117"><tspan id="SvgjsTspan1210" style="text-decoration:;">/yanxiujian/client/orderRoomActi</tspan></tspan><tspan id="SvgjsTspan1211" dy="16" x="117"><tspan id="SvgjsTspan1212" style="text-decoration:;">on.php?action=addSeatOrder</tspan></tspan></text></g></g><g id="SvgjsG1213"><path id="SvgjsPath1214" d="M196 728L196 744L229.5 744L229.5 757.4 " stroke="#323232" stroke-width="2" fill="none" marker-end="url(#SvgjsMarker1215)"></path></g><g id="SvgjsG1217" transform="translate(55,761)"><path id="SvgjsPath1218" d="M0 0L349 0L349 71L0 71Z " stroke="rgba(50,50,50,1)" stroke-width="2" fill-opacity="1" fill="#ffffff"></path><g id="SvgjsG1219"><text id="SvgjsText1220" font-family="微软雅黑" text-anchor="middle" font-size="13px" width="329px" fill="#323232" font-weight="400" align="middle" lineheight="125%" font-style="" opacity="1" y="8.875" transform="rotate(0)"><tspan id="SvgjsTspan1221" dy="16" x="174.5"><tspan id="SvgjsTspan1222" style="text-decoration:;">POSTDATA=</tspan></tspan><tspan id="SvgjsTspan1223" dy="16" x="174.5"><tspan id="SvgjsTspan1224" style="text-decoration:;">addCode&amp;method=addSeat</tspan></tspan><tspan id="SvgjsTspan1225" dy="16" x="174.5"><tspan id="SvgjsTspan1226" style="text-decoration:;">默认都是添加座位（换座谁用这个啊）</tspan></tspan></text></g></g><g id="SvgjsG1227"><path id="SvgjsPath1228" d="M314 680.75L423.5 680.75L423.5 682.875L530.4 682.875 " stroke="#323232" stroke-width="2" fill="none" marker-end="url(#SvgjsMarker1229)"></path><rect id="SvgjsRect1231" width="24" height="16" x="411.2625" y="672.75" fill="#ffffff"></rect><text id="SvgjsText1232" font-family="微软雅黑" text-anchor="middle" font-size="13px" width="24px" fill="#323232" font-weight="400" align="top" lineheight="16px" font-style="" opacity="1" y="670.125" transform="rotate(0)"><tspan id="SvgjsTspan1233" dy="16" x="423.2625"><tspan id="SvgjsTspan1234" style="text-decoration:;">GET</tspan></tspan></text></g><g id="SvgjsG1235" transform="translate(534,645.75)"><path id="SvgjsPath1236" d="M0 0L270 0L270 74.25L0 74.25Z " stroke="rgba(50,50,50,1)" stroke-width="2" fill-opacity="1" fill="#ffffff"></path><g id="SvgjsG1237"><text id="SvgjsText1238" font-family="微软雅黑" text-anchor="middle" font-size="13px" width="250px" fill="#323232" font-weight="400" align="middle" lineheight="125%" font-style="" opacity="1" y="18.5" transform="rotate(0)"><tspan id="SvgjsTspan1239" dy="16" x="135"><tspan id="SvgjsTspan1240" style="text-decoration:;">/yanxiujian/client/loginOut.php</tspan></tspan><tspan id="SvgjsTspan1241" dy="16" x="135"><tspan id="SvgjsTspan1242" style="text-decoration:;">登出</tspan></tspan></text></g></g><g id="SvgjsG1243" transform="translate(55,960)"><path id="SvgjsPath1244" d="M0 0L378 0L378 158L0 158Z " stroke="rgba(50,50,50,1)" stroke-width="2" fill-opacity="1" fill="#ffffff"></path><g id="SvgjsG1245"><text id="SvgjsText1246" font-family="微软雅黑" text-anchor="start" font-size="13px" width="358px" fill="#323232" font-weight="400" align="middle" lineheight="125%" font-style="" opacity="1" y="12.375" transform="rotate(0)"><tspan id="SvgjsTspan1247" dy="16" x="10"><tspan id="SvgjsTspan1248" style="text-decoration:;">area_map = {'伯川': '17', '令希': '32'}</tspan></tspan><tspan id="SvgjsTspan1249" dy="16" x="10"><tspan id="SvgjsTspan1250" style="text-decoration:;">room_map = {'17': {'301': '168', '312': '170', '401': '195',\</tspan></tspan><tspan id="SvgjsTspan1251" dy="16" x="10"><tspan id="SvgjsTspan1252" style="text-decoration:;">                                '404': '197', '409': '196', '501': '198',\</tspan></tspan><tspan id="SvgjsTspan1253" dy="16" x="10"><tspan id="SvgjsTspan1254" style="text-decoration:;">                                '504': '199', '507': '200'},\</tspan></tspan><tspan id="SvgjsTspan1255" dy="16" x="10"><tspan id="SvgjsTspan1256" style="text-decoration:;">                       '32': {'301': '207', '302': '208', '401': '205',\</tspan></tspan><tspan id="SvgjsTspan1257" dy="16" x="10"><tspan id="SvgjsTspan1258" style="text-decoration:;">                                '402': '206', '501': '203', '502': '204',\</tspan></tspan><tspan id="SvgjsTspan1259" dy="16" x="10"><tspan id="SvgjsTspan1260" style="text-decoration:;">                                '601': '201', '602': '202'}</tspan></tspan><tspan id="SvgjsTspan1261" dy="16" x="10"><tspan id="SvgjsTspan1262" style="text-decoration:;">                      } </tspan></tspan></text></g></g><g id="SvgjsG1263"><path id="SvgjsPath1264" d="M58 275L25 275L25 1039L51.400000000000006 1039 " stroke="#323232" stroke-width="2" fill="none" marker-end="url(#SvgjsMarker1265)"></path></g></svg>