<svg xmlns="http://www.w3.org/2000/svg" viewBox="0 0 282 74.13"><defs><style>.cls-1{fill:#fff;}</style></defs><g id="图层_2" data-name="图层 2"><g id="图层_1-2" data-name="图层 1"><path class="cls-1" d="M93,40l-.36.79-.32.48c-.39.38-2.64,2.74-2.84,2.94s-.26.26-1.31.47-1.25.72-1.25.72a3.43,3.43,0,0,0,3,.12c.52,0,1-.68,1-.68a19.88,19.88,0,0,0,6.28-5.68,52.57,52.57,0,0,0,2.5-4.83l.36-.37.22.23.22.22.22.46.71.7,2.37,3.14,1.29,2A15.77,15.77,0,0,0,109,45.59c1,1,5.6,1.09,6.48.73s.69-.93.69-.93l-.45-.76-.8-.81L113.56,43l-.77-.44L111.71,42l-2.82-1.62s-2.46-2.33-2.74-2.61-2-2.58-2-2.58l-.32-.8-.52-.89-.6-.6L102,32.7l-.88.09a.67.67,0,0,1-.77.07c-.38-.38,2-5.39,2.42-6.52a1.76,1.76,0,0,1,1.24-1.25s.85.13,3.59-.8,2.86-2.86,2.86-2.86l-.24-.64-1.05-.49-1.49-.16-1.37,0-.8.28-.33,0-1,0c-.73.2-.17-1.12-.17-1.12,1.17-1.86,1.33-7.17,1.17-8.1a2.42,2.42,0,0,0-1.17-1.49,3.43,3.43,0,0,0-1.2-.4l-.89.89-1,.72c-.14.1,0,.67,0,.67l0,.44s-.18,1.95-.18,2.13-.24,3-.24,3a16.63,16.63,0,0,1-.4,2.84,3.71,3.71,0,0,1-1,2.5,24.89,24.89,0,0,1-3.8,1.81c-.83.22-1.88.73-2.28.87a6,6,0,0,0-1.37,1,7.64,7.64,0,0,0-1.12.79c-.43.42-.26.55-.26.55l.24.23.66.43a2.85,2.85,0,0,0,3.36,1.4c.83-.26,1.29-.7,2.26-1.1s.8.4.8,1a9.09,9.09,0,0,1-.36,1.86,10.67,10.67,0,0,1-.65,1.73A27,27,0,0,1,95,36l-.59,1-.54,1Z"/><path class="cls-1" d="M138.66,32.91l-.39.74-1.4.81-.61.32-.83.42s-.54.31-.61.38-.85.51-.85.51-.85.43-.85.43h-.81s-.29-.09-.44.06a1,1,0,0,0-.17.51l.27.2a6.8,6.8,0,0,0,1.81.2,4.39,4.39,0,0,0,1.1,0c.17,0,1.57-.8,1.87-.89a2.63,2.63,0,0,1,.91-.16c.36,0,.29.09.38.18a1.3,1.3,0,0,1,.15.41l0,.68a15.2,15.2,0,0,1-.34,2.74c0,.38-.41,1,.1,1.23a.76.76,0,0,1,.53.63c-.35.61-1.92.17-2.9-.38a32.53,32.53,0,0,0-6-1.36c-.31,0-.55-.59-.55-.59l-.3-.68-.52-.57-.77-.61a11.8,11.8,0,0,1-1.16-1.25,2.33,2.33,0,0,1-.27-.5l-.13-.58v-.74a6,6,0,0,1,.3-1.44c.22-.45.8-1.6.8-1.6.51-1.38,1.36-1.41,1.74-1.79a2.39,2.39,0,0,0,.81-1.82c0-.94-1-1.35-1.43-1.47s-2.15-.29-2.64.19-.24,1.45-.24,1.45a2.49,2.49,0,0,0,.45,1.07c.71.18.43.85.43.95A10.55,10.55,0,0,1,125,33.28a8.2,8.2,0,0,0-.82,1.67,6.34,6.34,0,0,0-.24,1.48,2.74,2.74,0,0,0,.48,1.77c.26.15.51.68.92,1.54s-.55,1-.55,1l-.57.09h-.3c-.17.17-.55.2-.83.74s-.15,1,.17,1a5.45,5.45,0,0,0,2.27-.19,11.62,11.62,0,0,1,5-.29,9.38,9.38,0,0,1,3.35,1.08c.34,0,2.78,1.5,4.11,2.18a28.22,28.22,0,0,0,4.12,1.73,11.9,11.9,0,0,0,2.52.17c.4,0,2.75-.25,2.75-.25,2.44-.14,3-.62,3.29-1.67a1.17,1.17,0,0,0-.56-1.42s-1.62-.31-2.07-.31-2.3-.15-2.61-.15-3.44-.31-3.44-.31l-1.62-.22-.27-.2s-.15-.39.12-.39.61-.61.61-.61-.06-2.13-.06-2.3a27.86,27.86,0,0,1,0-3.46,1.33,1.33,0,0,1,1-1.07c.17-.18,1.08.16,1.75-.77a1.67,1.67,0,0,0-.08-1.93,3.35,3.35,0,0,0-.85-.2,6.92,6.92,0,0,0-.85.09.75.75,0,0,1-.46.19c-.25,0-.14-.39-.14-.39,0-.29.23-2.58.23-2.58l.2-1.2.37-1.1c.22-.54.51-.85,1.61-1.68s.67-1,.57-1.13a7.1,7.1,0,0,0-1.5-.17c-.17,0-.23-.74-.23-1.19a1.86,1.86,0,0,0-1.3-1.36c-.66-.17-.8.31-.8.31a7.62,7.62,0,0,0-.14.93c0,.26-.23,1.39-.23,1.39,0,.85-1.08,1.45-1.08,1.45l-.79.54c-1.19.88-1.33.26-1.33.26-.2-1.17,2.39-5.67,2.73-6.13a5.15,5.15,0,0,1,3.08-2.56c2.13-.65,2.13-.2,3.31-1.19s1-1.33,1-2-.95-.87-1.36-1.29-2.27-.07-2.27-.07c-.77.33-.67-.34-.67-.34v-.7c0-.14-.26-1.06-.26-1.06l-.48-.74s-.38-.38-.57-.38h-.74a1.44,1.44,0,0,0-1.21.72,10.87,10.87,0,0,1-.23,1.86c-.1.1-.11.4-.21,1.42s-.63,1.05-.9,1.32a18.82,18.82,0,0,1-1.8.83c-.12.13-1.82,1-1.82,1a7.26,7.26,0,0,0-1.23.67c-.21.21-1,.66-1.09,1.11a2.14,2.14,0,0,0,.11,1,2.84,2.84,0,0,0,.55.95,1.91,1.91,0,0,0,1.1.44,5.74,5.74,0,0,0,1.08-.54.82.82,0,0,1,.88,0c.28.28,0,.7,0,.7l-.27.27-.23.53-.45.81-.7,1.42-.36.87-.49,1.25a6.24,6.24,0,0,0-.49,1.42,9.8,9.8,0,0,0,.24,1.36l.4.39a3.6,3.6,0,0,0,1.8.82,6.67,6.67,0,0,0,1.09-.13,1.22,1.22,0,0,0,.53-.25,8.71,8.71,0,0,1,1.75-1.44c.66-.3.43.49.43.49a5.9,5.9,0,0,0-.15.67c0,.11-.06,1.59-.06,1.59l0,1.34-.21.28"/><path class="cls-1" d="M170,31.47c-.33.32-6.16,9.43-6.36,9.74s-.64.62-.84.43c-.48-.47-.09-2.1.11-2.64.35-.93,2.32-4.23,2.65-5.25a7.65,7.65,0,0,0,.25-3.29,4.55,4.55,0,0,0-.39-1,30.9,30.9,0,0,1,2-6.73c.68-1.36,1.31-1.42,1.93-2.41a1.4,1.4,0,0,0-.34-2c-.5-.52-1.74-.05-1.87.08s-2.1.94-2.1.94c-.28.28-2.1.76-2.24.9a9.2,9.2,0,0,0-1.65,1,2,2,0,0,0-.59,1.25l.2.3c.11.26,1.06.64,1.06.64a2.94,2.94,0,0,0,3-.42.35.35,0,0,1,.61.08s-1.06,6.24-1.74,5.9-3.1-.19-3.94,1.06a4.75,4.75,0,0,0-.72,3.71A2.53,2.53,0,0,0,161.89,35a5.28,5.28,0,0,0,1.93-1.67l-3.18,8.78a2,2,0,0,0-.1.75,1.58,1.58,0,0,0,.3.73,2.26,2.26,0,0,0,.82.6,1.62,1.62,0,0,0,.59.11,2.19,2.19,0,0,0,2-1.1c.51-.74.91-1.77,1.42-2.64,1-1.74,4.72-8.89,4.72-8.89C170.36,31,170,31.47,170,31.47Zm-7.21.61c-.88.87-1.38,1.91-2.23,1.06a2.24,2.24,0,0,1,.66-1.94c.89-.88,1.59-1.15,2.06-1S163.66,31.19,162.78,32.08Z"/><path class="cls-1" d="M174.51,34.87a1.53,1.53,0,0,1-1.1.46c-.7,0-.53.3-.59.36a3.9,3.9,0,0,0,.34.83c0,.19.74.66.91.66s.42.53.42.53a7.38,7.38,0,0,1,0,1.82,2.52,2.52,0,0,1-.23.81c-.1.11-1.3.31-1.36.38s-1.82.53-1.82.53a10.24,10.24,0,0,0-1.09.34c-.06.06-.38,0-.5.25s.14.62.14.62.67.67.85.85a2.51,2.51,0,0,0,1,.46,8,8,0,0,0,1.25-.06c.28-.08,2.21-.49,3.89-.87A8.48,8.48,0,0,1,181,43a1.48,1.48,0,0,0,1.6.56A4.94,4.94,0,0,0,185,42c.55-.56.36-.93.36-.93s-.08-.89-1.35-1.27a30.67,30.67,0,0,0-6.68-.15c-.53.14-.62-1.19-.62-1.19a2.76,2.76,0,0,1,.34-1.91c1.19-1.55,2.52-1.06,3.37-1.32s1.3-.25,1.51-1a1.15,1.15,0,0,0-.68-1.49,3.87,3.87,0,0,0-1.68,0l-.5.15-.81.13-.68-.15.19-2.19a13.85,13.85,0,0,1,.15-1.44c1.49-1.5,5.18-5.64,6.09-7.76a11,11,0,0,0,.95-4.95,3.39,3.39,0,0,0-1-2.35c-2.5-2.49-6.09,0-7,.57a16.09,16.09,0,0,0-3,2.42,2.59,2.59,0,0,0-.79,2.23c0,.32.94.11.94.11a5.34,5.34,0,0,1,.82-.29c.14,0,.88-.25.88-.42s.79-.8,1.41-1.42A12,12,0,0,1,180,15.79a7.25,7.25,0,0,1,1.65-.34h1.22c.34,0,.85.88.85.88a5.63,5.63,0,0,1-.2,2.52s.17,0-.71,2.16a13.68,13.68,0,0,1-3.09,4.2c-.34.34-.63,0-.74,0s0-.78,0-.78l.29-.3c0-.2.63-.62.63-1s.62-1.11.88-1.11.59-.51.59-.51l.26-.6-.29-.42-.3-.82-.55-.2-.28-.31-.63-.15-.46-.55c-1.49-1.21-1.49-.47-1.49-.47a8,8,0,0,0,.07,1.15,2.35,2.35,0,0,1-.15.93,13,13,0,0,0-2.34,2.2c-.14.36-.43.91-.1,1.25a5,5,0,0,0,1.38.68s.43.55.53.66,0,.87,0,.87l-.24.28-.48.61-.41.4-.53.18-.59.16-.4.37-.24.23-.4-.19-.13-.38v-.66a2.52,2.52,0,0,0,.21-.74c0-.26.09-1.32.09-1.32l-.13-.89-.11-.85a1.23,1.23,0,0,0-1.35-1c-.41.11-1.23.62-1.74,2.29a15.7,15.7,0,0,0-.57,4.14c0,.57.14.78.36.78s.54.33.54.33a2.73,2.73,0,0,0,1.19,1c.32.13.7-.27.85-.42s.15-.34.49-.51a.34.34,0,0,1,.49.13c.13.8,1,.67,1.23.67s.64-.76.89-.76.17.68.17.91a4.91,4.91,0,0,1-.13.75,20.3,20.3,0,0,1-.31,2.24c0,.32-.79,1.13-.79,1.13Z"/><path class="cls-1" d="M201.35,28.56a3.71,3.71,0,0,1,.25-1,18.73,18.73,0,0,1,4-2.64c1.59-.63,2.9-.94,4.23-.26a3.4,3.4,0,0,1,1.9,1.93c0,.29.45,1.7-2.3,4.46A10.37,10.37,0,0,1,207,32.93s-.73.48-.17.65a5.6,5.6,0,0,0,2.16-.06,9.84,9.84,0,0,1,3.2-.11,10.5,10.5,0,0,0,3.38,0,1.55,1.55,0,0,1,1,.46c.46.45,1.17,1,1.17,1.19a1.93,1.93,0,0,1-.69,1.22c-.58.58-1,1.44-1.44,1.58a6,6,0,0,1-1.65,0c-.25,0-13,.15-16.28,2.47a2.17,2.17,0,0,1-2.08.15,2.12,2.12,0,0,1-1.24-2.56s-.06-.57,1.59-1.53a15.52,15.52,0,0,1,6.92-2s.79.06.94-.37c0,0,3.46-2.52,3.77-5.1,0,0,.14-.88-1.05-.23s-.92.38-1.19.65-.57.49-.71.63-1.62.51-2.24-.12l-.63-.53C201.72,29.21,201.32,28.73,201.35,28.56Z"/><path class="cls-1" d="M237.35,24.93a4.47,4.47,0,0,1,1.53-.26l1.76-.06.85.12,1,.11s.48.06.48.34a1.71,1.71,0,0,1-.43,1.08c-.28.28-.9,1.27-1.43,1.43a7.26,7.26,0,0,1-1.86.19c-.53,0-2.63.11-3.29,1.39a9,9,0,0,0-.79,2c-.14.4-.09,1.31-.48,1.7,0,0-.6.37,0,.49a5,5,0,0,1,1.84.71,25.94,25.94,0,0,1,2.58,3,8.84,8.84,0,0,0,1.53,1.39l1.17.8,1.08.68,1,.71a7.47,7.47,0,0,0,1.81.82,12,12,0,0,1,2.33,1.08l1.76.85a12.35,12.35,0,0,1,1.47.85s.2.37,0,.37-1.76.11-1.76.11-.76.46-.76.63-.7.86-.7.86a2.64,2.64,0,0,1-.81.39c-.22,0-2.29.25-3.4-.48a12.22,12.22,0,0,1-3.8-3.44c-.85-1.47-4-6.61-4.71-7.83s-1.15-.94-1.15-.94-.78,1.9-.78,2-.38,1.17-.38,1.17l-.25.4-.27.27-.25.43s-.31.32-.31.44-.41.53-.41.53l-.31.51-.17.36-.89.58-.45.4-.28.28s-1.37,1.12-1.76,1.35a3,3,0,0,0-.65.48l-.34.18a8.32,8.32,0,0,1-1.81.57,2.63,2.63,0,0,1-1.25-.31,1.3,1.3,0,0,0-.38-.2c-.09,0-.55-.08-.55-.27s.44-.43.57-.43a3,3,0,0,0,.79-.12c.06-.06,1.17-.8,1.38-1a12.2,12.2,0,0,0,1.88-1.87c.57-.84,2.48-2.73,3.36-4.67s.83-1.77,1-2a3.25,3.25,0,0,0,.64-1.32c0-.33.26-1.25-.34-1.12a2.05,2.05,0,0,0-1.17.6,1.88,1.88,0,0,1-1,.48,2,2,0,0,1-1.68-.4c-.6-.6-1.21-1.06-1.21-1.25a1,1,0,0,1,.17-.89,5.25,5.25,0,0,0,.6-.81c.08-.08.44-.42,1.8-.3,0,0,.81,0,1-.21a1.28,1.28,0,0,1,.7-.23,10.37,10.37,0,0,0,1.21-.42,5.6,5.6,0,0,0,1.33-.85s.36-.6.22-.94a2.24,2.24,0,0,1,.23-1.42,2.46,2.46,0,0,0,.49-1,15.22,15.22,0,0,0,.44-1.95s.66-4.07.32-5.49l-.34-.88s0-.62.08-.73.4-.46.4-.46l.29-.23.73,0a4.27,4.27,0,0,1,.71.28l.3.3.81.78a2.43,2.43,0,0,1,.39,1.31,21.63,21.63,0,0,1-.22,3.82,8,8,0,0,1-.6,1.28L237.49,23l-.17,1Z"/><path class="cls-1" d="M229.92,31.72s.32.07,1.69-.95S229.92,31.72,229.92,31.72Z"/><path class="cls-1" d="M263.85,14.2s-.19-.1-.71.43a11.37,11.37,0,0,0-1.82,3.12,11.76,11.76,0,0,0-.25,3.69s.42,1.19.71,1.19a1.68,1.68,0,0,0,1.33.51,1.3,1.3,0,0,0,1.42-.94,2.76,2.76,0,0,1,.42-.76,1.62,1.62,0,0,0-.22-1.31,1.06,1.06,0,0,1-.06-1.44,1.22,1.22,0,0,0,.31-.77s.14-.71-.11-1a9.1,9.1,0,0,0,.2-1,2.38,2.38,0,0,0-.29-1c-.15-.16-.65-.6-.65-.6Z"/><path class="cls-1" d="M267.93,13.18a6,6,0,0,0-.76,1.25,6.89,6.89,0,0,0-.4,1.64c0,.2-.13,1.61.14,1.88s.48.63.64.63.67.73.67.73l.36.25h.88s.8.29.8.43,1,.91,1,.91a1.06,1.06,0,0,0,.51-.23c.19-.18,1-1.48,1.45-1.7a3.52,3.52,0,0,1,1.45-.4l.7,0a4.52,4.52,0,0,0,.8-.4c.12-.11,1.87-1.16,2.22-1.84,0,0,1.5-1.22,1.5-1.48l.45-.45a4.63,4.63,0,0,0,.13-1.36,1.37,1.37,0,0,0-.24-.54l-.48-1.17-.51-.51a3.86,3.86,0,0,0-1.14-.56c-.31,0-.94.08-1.16.08s-.92.34-.92.69a7.16,7.16,0,0,1-.78,2.15,16.51,16.51,0,0,1-2.44,3.15s-.35.74-.49.74-.56.47-1-.18a1.28,1.28,0,0,1,0-1V15l-.43-.56s-.65-.78-.78-.78-.42-.51-.63-.51S268.34,12.77,267.93,13.18Z"/><path class="cls-1" d="M259.64,27.53a7,7,0,0,0-1.78.83,7.83,7.83,0,0,0-2.33,4.51c-.25,2.44.57,2.38,1.08,2.38s1.93.4,2.47-.59c0,0,.17-1.56.17-2.33s.25-2.69.25-2.92.29-.85.29-1,.17-.88.17-.88Z"/><path class="cls-1" d="M260.87,27.9l.68-.33a14.9,14.9,0,0,0,1.3-.94c.26-.26,6-3.32,8.71-3.86s7.75-1.59,10,1A2.43,2.43,0,0,1,282,25a4.74,4.74,0,0,1-.25,1.59c-.08.08-.65.85-1.08,1.27a1.3,1.3,0,0,1-1,.43c-.12,0-1.74.23-1.74.23s-1,.23-1.16.23a8.71,8.71,0,0,0-1.1.34l.69-.7a13,13,0,0,1,1.32-.92l.44-.44.44-.44.45-.68.23-.74s.23-.62-.82-1.05a7.18,7.18,0,0,0-2.81-.26c-.26,0-2.56.06-7.07,1.79s-4.31,2.19-5.56,2.47S261.14,28.54,260.87,27.9Z"/><path class="cls-1" d="M268.61,44.36s-.39.45-.59.65-1.55,1.1-1.71,1.25a2.88,2.88,0,0,1-.82.63c-.51.28-.79,0-1,0s-.25-.27-.37-.4a5.07,5.07,0,0,1-.43-.77l-.18-.44-.21.22a3,3,0,0,0,0,1.53c0,.2,1,1,1,1,.31.31,1.11.46,2.52.11a4.49,4.49,0,0,0,2.5-1.7,16.45,16.45,0,0,0,1.62-2.24,12.66,12.66,0,0,0,1.87-4.49l.26-.19a12.52,12.52,0,0,1,1.76-.09c1.36,0,1.24.31,1.53.31s1.19.09,1.61.09a4.65,4.65,0,0,0,2.18-1.14c.56-.56,0-1-.19-1.16a12.18,12.18,0,0,0-2.16-1,39.52,39.52,0,0,0-4.54-.09c-1.75,0-1.53-2.15-1.53-2.75s.94-1.19,1.11-1.36.77-1,1.53-1.79S274,29,274,29l-.54-.34a5.18,5.18,0,0,0-1-.23c-.28,0-1.33.12-1.33.12a7.35,7.35,0,0,0-1.25.4,11.77,11.77,0,0,1-1.39.54l0,.34c.28,1,.8.65,1.42,1s.4.39.4.85-.9,1.46-1.05,1.62a1.57,1.57,0,0,0-.68,1.1c0,.6.21.76.88,1.42s.22,1,.22,1c0,.23-.28.37-.28.37a33.56,33.56,0,0,0-3.94.74,15.35,15.35,0,0,0-2.62.71c-.21.21-1.75.57-1.87.68a3.41,3.41,0,0,1-1.56.51c-.6,0-.64.19-.64.19,0,.32.34.34.87.86s2.16.31,3,.06,2.27-.54,3.06-.77,2.61-.4,3.24-.57a1.15,1.15,0,0,1,.88,0,1.29,1.29,0,0,1,.19.91,17.75,17.75,0,0,1-.62,2.16Z"/><path class="cls-1" d="M90.85,57.94h2.08a3,3,0,0,1,1.18.18,1.94,1.94,0,0,1,.74.59,3,3,0,0,1,.53,1.09,5.9,5.9,0,0,1,.2,1.65A5.1,5.1,0,0,1,95.37,63a3,3,0,0,1-.51,1,2,2,0,0,1-.74.58,2.84,2.84,0,0,1-1.13.19H90.85ZM92,59.11v4.55h.85a2.43,2.43,0,0,0,.79-.1,1,1,0,0,0,.41-.32,1.93,1.93,0,0,0,.26-.65,7.25,7.25,0,0,0,0-2.4A1.59,1.59,0,0,0,94,59.5a1,1,0,0,0-.54-.33,4.62,4.62,0,0,0-.93-.06Z"/><path class="cls-1" d="M102.59,64.82h-1.23l-.5-1.56H98.61l-.47,1.56H96.93l2.2-6.88h1.2ZM100.5,62.1l-.78-2.55L99,62.1Z"/><path class="cls-1" d="M104.18,64.82V58h1.14v5.66h2.83v1.16Z"/><path class="cls-1" d="M109.89,64.82V57.94H111v6.88Z"/><path class="cls-1" d="M118.17,64.82h-1.24l-.49-1.56h-2.26l-.46,1.56H112.5l2.2-6.88h1.21Zm-2.1-2.72-.78-2.55-.76,2.55Z"/><path class="cls-1" d="M119.74,64.82V57.94h1.11l2.3,4.6v-4.6h1.06v6.88h-1.14l-2.27-4.48v4.48Z"/><path class="cls-1" d="M132.67,57.94h1.13v3.73a8.34,8.34,0,0,0,0,1.13,1.17,1.17,0,0,0,.35.7,1.08,1.08,0,0,0,.75.25,1.16,1.16,0,0,0,.65-.17.86.86,0,0,0,.34-.49,6.16,6.16,0,0,0,.09-1.34V57.94h1.14v3.62a9.41,9.41,0,0,1-.15,2,1.71,1.71,0,0,1-.67,1,2.26,2.26,0,0,1-1.36.38,2.56,2.56,0,0,1-1.38-.32,1.82,1.82,0,0,1-.72-.89,6.7,6.7,0,0,1-.22-2.12Z"/><path class="cls-1" d="M139.34,64.82V57.94h1.11l2.3,4.6v-4.6h1.06v6.88h-1.14l-2.27-4.48v4.48Z"/><path class="cls-1" d="M145.94,64.82V57.94h1.14v6.88Z"/><path class="cls-1" d="M150.57,64.82l-2-6.88h1.24L151.21,63l1.39-5.09h1.21l-2,6.88Z"/><path class="cls-1" d="M155.35,64.82V57.94h4.18v1.17h-3.05v1.52h2.84v1.16h-2.84v1.87h3.15v1.16Z"/><path class="cls-1" d="M161.56,64.82V57.94H164a3.37,3.37,0,0,1,1.31.19,1.43,1.43,0,0,1,.65.64,2.24,2.24,0,0,1,.25,1.1,2.11,2.11,0,0,1-.38,1.3,1.76,1.76,0,0,1-1.1.62,2.73,2.73,0,0,1,.6.57,7.63,7.63,0,0,1,.65,1.12l.69,1.34h-1.36l-.82-1.49a9.15,9.15,0,0,0-.61-1,.8.8,0,0,0-.34-.28,1.57,1.57,0,0,0-.57-.08h-.23v2.87Zm1.14-4h.84a4,4,0,0,0,1-.07.59.59,0,0,0,.34-.27A1,1,0,0,0,165,60a1,1,0,0,0-.13-.53.69.69,0,0,0-.36-.27,4.06,4.06,0,0,0-.92,0h-.89Z"/><path class="cls-1" d="M167.92,62.58l1.11-.13q.19,1.32,1.23,1.32a1.17,1.17,0,0,0,.81-.27.87.87,0,0,0,.3-.67.72.72,0,0,0-.11-.4.75.75,0,0,0-.31-.27,8,8,0,0,0-1-.35,3.62,3.62,0,0,1-1.07-.48,1.94,1.94,0,0,1-.54-.68,2.12,2.12,0,0,1-.2-.9,2,2,0,0,1,.26-1,1.66,1.66,0,0,1,.71-.68,2.34,2.34,0,0,1,1.11-.23,2,2,0,0,1,2.14,2.08L171.2,60a1.23,1.23,0,0,0-.32-.77,1,1,0,0,0-.71-.22,1.13,1.13,0,0,0-.71.19.59.59,0,0,0-.25.47.62.62,0,0,0,.23.48,3.24,3.24,0,0,0,1,.42,4.28,4.28,0,0,1,1.24.52,1.82,1.82,0,0,1,.58.71,2.55,2.55,0,0,1,.2,1,2.16,2.16,0,0,1-.55,1.51,2.2,2.2,0,0,1-1.72.61C168.84,64.94,168.07,64.15,167.92,62.58Z"/><path class="cls-1" d="M174.39,64.82V57.94h1.13v6.88Z"/><path class="cls-1" d="M178.84,64.82V59.11h-1.67V57.94h4.48v1.17H180v5.71Z"/><path class="cls-1" d="M184.83,64.82V61.93l-2.06-4h1.33l1.32,2.72,1.31-2.72H188l-2.07,4v2.88Z"/><path class="cls-1" d="M195.5,61.43a4.78,4.78,0,0,1,.37-2,2.65,2.65,0,0,1,.95-1.18,2.49,2.49,0,0,1,1.42-.39,2.43,2.43,0,0,1,2,.92,4,4,0,0,1,.76,2.63,4.16,4.16,0,0,1-.8,2.7,2.61,2.61,0,0,1-3.86,0A4,4,0,0,1,195.5,61.43Zm1.17,0a2.93,2.93,0,0,0,.46,1.78,1.36,1.36,0,0,0,1.11.59,1.34,1.34,0,0,0,1.12-.59,3,3,0,0,0,.44-1.81,2.91,2.91,0,0,0-.43-1.76,1.33,1.33,0,0,0-1.13-.58,1.37,1.37,0,0,0-1.13.58A3,3,0,0,0,196.67,61.38Z"/><path class="cls-1" d="M202.83,64.82V57.94h3.87v1.17H204v1.63h2.36V61.9H204v2.92Z"/><path class="cls-1" d="M216.18,64.82V59.11H214.5V57.94H219v1.17h-1.67v5.71Z"/><path class="cls-1" d="M220.68,64.82V57.94h4.19v1.17h-3.05v1.52h2.83v1.16h-2.83v1.87H225v1.16Z"/><path class="cls-1" d="M230.51,62.29l1.1.43a3.11,3.11,0,0,1-.86,1.69,2.31,2.31,0,0,1-3.26-.32,4.08,4.08,0,0,1-.79-2.65,4.29,4.29,0,0,1,.79-2.75,2.24,2.24,0,0,1,1.86-.86,2.12,2.12,0,0,1,1.58.64,2.8,2.8,0,0,1,.67,1.37l-1.12.33a1.63,1.63,0,0,0-.43-.86,1.09,1.09,0,0,0-.76-.3,1.19,1.19,0,0,0-1,.55,3.05,3.05,0,0,0-.4,1.79,3.28,3.28,0,0,0,.39,1.85,1.16,1.16,0,0,0,1,.55,1,1,0,0,0,.78-.35A2.3,2.3,0,0,0,230.51,62.29Z"/><path class="cls-1" d="M233.55,64.82V57.94h1.13v2.71h2.24V57.94h1.14v6.88h-1.14v-3h-2.24v3Z"/><path class="cls-1" d="M240.2,64.82V57.94h1.11l2.31,4.6v-4.6h1.06v6.88h-1.14l-2.28-4.48v4.48Z"/><path class="cls-1" d="M246.61,61.43a5,5,0,0,1,.36-2,2.72,2.72,0,0,1,.95-1.18,2.52,2.52,0,0,1,1.42-.39,2.44,2.44,0,0,1,2,.92,4,4,0,0,1,.76,2.63,4.1,4.1,0,0,1-.81,2.7,2.59,2.59,0,0,1-3.85,0A4,4,0,0,1,246.61,61.43Zm1.17,0a2.94,2.94,0,0,0,.45,1.78,1.38,1.38,0,0,0,1.12.59,1.34,1.34,0,0,0,1.12-.59,3,3,0,0,0,.44-1.81,3,3,0,0,0-.43-1.76,1.33,1.33,0,0,0-1.13-.58,1.37,1.37,0,0,0-1.13.58A3,3,0,0,0,247.78,61.38Z"/><path class="cls-1" d="M254,64.82V58h1.14v5.66h2.83v1.16Z"/><path class="cls-1" d="M259.48,61.43a5,5,0,0,1,.36-2,2.72,2.72,0,0,1,1-1.18,2.52,2.52,0,0,1,1.42-.39,2.44,2.44,0,0,1,2,.92,4.92,4.92,0,0,1-.05,5.33,2.36,2.36,0,0,1-1.92.86,2.39,2.39,0,0,1-1.94-.85A4.1,4.1,0,0,1,259.48,61.43Zm1.17,0a2.94,2.94,0,0,0,.45,1.78,1.38,1.38,0,0,0,1.12.59,1.31,1.31,0,0,0,1.11-.59,3.84,3.84,0,0,0,0-3.57,1.35,1.35,0,0,0-1.13-.58,1.37,1.37,0,0,0-1.13.58A3,3,0,0,0,260.65,61.38Z"/><path class="cls-1" d="M269.43,62.3V61.13h2.45v2.74a2.68,2.68,0,0,1-1.05.75,3.22,3.22,0,0,1-1.36.32,2.72,2.72,0,0,1-1.48-.41,2.78,2.78,0,0,1-1-1.23,4.62,4.62,0,0,1-.37-1.93,4.45,4.45,0,0,1,.38-1.94,2.87,2.87,0,0,1,1-1.21,2.58,2.58,0,0,1,1.44-.39,2.46,2.46,0,0,1,1.62.51,2.5,2.5,0,0,1,.78,1.51l-1.13.26a1.47,1.47,0,0,0-.46-.82,1.28,1.28,0,0,0-.81-.28,1.43,1.43,0,0,0-1.18.57,2.74,2.74,0,0,0-.45,1.72,3.07,3.07,0,0,0,.49,1.89,1.32,1.32,0,0,0,1.13.56,1.79,1.79,0,0,0,.69-.15,2.32,2.32,0,0,0,.64-.43V62.3Z"/><path class="cls-1" d="M275.38,64.82V61.93l-2.07-4h1.33L276,60.66l1.31-2.72h1.31l-2.08,4v2.88Z"/><path class="cls-1" d="M23.44,12.86l-.36-.62-1.6,1-.58-1,1.44-.9L22,10.76l-1.44.91-.48-.81,1.55-1-.35-.6-2.13,1.33,2.13,3.59Zm3.65-4.6a1.34,1.34,0,0,0,.43.3,1.89,1.89,0,0,0,.69.08,3,3,0,0,1,.64,0,.51.51,0,0,1,.24.1.53.53,0,0,1,.12.21.54.54,0,0,1-.05.45.75.75,0,0,1-.41.31c-.4.11-.71-.06-.93-.56l-.61.28c.36.89.95,1.22,1.73,1a1.3,1.3,0,0,0,.87-.68,1.37,1.37,0,0,0,.05-1,1.6,1.6,0,0,0-.3-.57,1,1,0,0,0-.47-.31,2.1,2.1,0,0,0-.8-.09,1.84,1.84,0,0,1-.66,0,.38.38,0,0,1-.21-.25.42.42,0,0,1,0-.32A.71.71,0,0,1,27.85,7a.52.52,0,0,1,.44,0,.72.72,0,0,1,.32.4l.63-.25a1.2,1.2,0,0,0-.6-.79,1.16,1.16,0,0,0-1,0,1.54,1.54,0,0,0-.61.33,1.35,1.35,0,0,0-.28.53,1.28,1.28,0,0,0,0,.64A1.37,1.37,0,0,0,27.09,8.26Zm-2.84,4,.25-.12.36-.17-.36-.76-.35-.78,0-.06,0,0,.11,0,.25-.1s.06,0,.07,0a.63.63,0,0,1,.25.07c.09.06.29.19.58.41l.84.61L27,11l-.7-.56a5,5,0,0,0-.64-.45,1.43,1.43,0,0,0-.48-.16,1,1,0,0,0,.43-.64,1.28,1.28,0,0,0-.11-.82,1.47,1.47,0,0,0-.42-.54.85.85,0,0,0-.51-.19h0l-.36.08-.39.17-1.28.63,1.64,3.59ZM23.4,8.81l.48-.22c.11-.07.22-.11.28-.15l.23-.08a.27.27,0,0,1,.13,0,.29.29,0,0,1,.14,0,.56.56,0,0,1,.2.26.53.53,0,0,1,.07.33.39.39,0,0,1-.12.25,1.16,1.16,0,0,1-.29.19,1.12,1.12,0,0,1-.22.1l-.14.07-.31.15ZM67.58,37.29a2.8,2.8,0,0,0-1.2-.26h0a2.32,2.32,0,0,0-1.59.44,1.52,1.52,0,0,0-.54,1.18,1.41,1.41,0,0,0,.47,1.16,2.47,2.47,0,0,0,1.6.55h0a2.44,2.44,0,0,0,1.55-.42,1.5,1.5,0,0,0,.57-1.19,1.61,1.61,0,0,0-.2-.86A1.78,1.78,0,0,0,67.58,37.29ZM67.4,39.4a1.6,1.6,0,0,1-1.05.24,1.77,1.77,0,0,1-1.07-.3.83.83,0,0,1-.33-.67.81.81,0,0,1,.37-.68,1.69,1.69,0,0,1,1-.24h0a1.66,1.66,0,0,1,1,.3.85.85,0,0,1,.33.68A.87.87,0,0,1,67.4,39.4ZM12.31,23.65a1.06,1.06,0,0,0,.68-.09,1.69,1.69,0,0,0,.59-.62,1.31,1.31,0,0,0,.23-.84,1,1,0,0,0-.3-.67,4.93,4.93,0,0,0-1-.71l-1.83-1.17-.34.6,1.92,1.22a3,3,0,0,1,.65.49.5.5,0,0,1,.14.33.69.69,0,0,1-.11.39.68.68,0,0,1-.36.31.7.7,0,0,1-.47,0,5.69,5.69,0,0,1-.58-.34L9.66,21.3l-.35.6,1.86,1.18A4.83,4.83,0,0,0,12.31,23.65Zm7.39-8.17-1.67-4-.56.46,1.3,2.95L16.19,13l-.56.47L19.14,16Zm-4.51,4.79-2-1.75,2.91.68.45-.54L13.35,16l-.41.5,2.11,1.8-3-.71-.42.53,3.15,2.7Zm2.55-3-2.85-3-.5.49,2.87,3Zm19.7-6.89h-.75c-.76,0-1.5,0-2.27.09v1.85A24.82,24.82,0,0,0,12.05,34.39h4.66A20.16,20.16,0,0,1,34.42,17v.29A4,4,0,0,1,32,20.8,16.89,16.89,0,0,0,20,34.39h4.52A12.8,12.8,0,0,1,48,30.46s0,.08.07.12c.13.21.25.43.37.65s.25.5.36.76l.08.17a12.9,12.9,0,0,1,.72,2.23h4.53a16.91,16.91,0,0,0-12-13.59,4,4,0,0,1-2.45-3.53V17A20.17,20.17,0,0,1,57.42,34.39h4.66A24.83,24.83,0,0,0,39.7,12.33V10.48C38.94,10.42,38.19,10.39,37.44,10.39Zm20,8.05.48-.5L56.59,16.6l.78-.84L58.59,17l.47-.52-1.22-1.2.63-.68,1.31,1.3.48-.51-1.81-1.79-2.81,3.06Zm1.11.85a1.38,1.38,0,0,0,.24,1.18,1.26,1.26,0,0,0,.8.53,1.75,1.75,0,0,0,1.1-.21l-.19-.69a1.43,1.43,0,0,1-.71.18A.61.61,0,0,1,59.4,20a.73.73,0,0,1-.11-.69,2.15,2.15,0,0,1,.74-.87A1.85,1.85,0,0,1,61,18a.69.69,0,0,1,.62.3.63.63,0,0,1,.13.48.9.9,0,0,1-.24.53l.56.42a1.63,1.63,0,0,0,.4-.83,1.28,1.28,0,0,0-.26-1,1.33,1.33,0,0,0-1.07-.59,2.57,2.57,0,0,0-1.6.64A2.49,2.49,0,0,0,58.59,19.29ZM31.82,9.6,31,5.48l-.67.14.88,4.12Zm-21.39,21-2.55-.79,2.94-.54.19-.67L7.1,27.4,6.92,28l2.62.82-3,.54L6.33,30l3.92,1.21ZM60.61,23l1.57-.9.64,1.19-1.56.91.34.6,3.57-2.07-.34-.59L63.42,23l-.64-1.2,1.4-.82-.33-.6-3.57,2.07ZM48.44,9.69l1.29.61L50,9.65,48.74,9l.4-.91,1.47.71.29-.65-2.09-1L47.1,11l.62.3Zm5.79,5.69,2.12-2.73.79.65.43-.56L55.49,11l-.45.55.78.63L53.7,15Zm-21-9.54.38,3.49.67-.08L33.9,5.76l1-.11-.08-.71-2.64.3.08.71ZM37,9.06h.68l.05-1.77L39,4.89l-.77,0-.82,1.65-.75-1.7-.79,0L37,7.27Zm7.64,1.19a1.3,1.3,0,0,0,.58.08,1.22,1.22,0,0,0,.65-.25,2.41,2.41,0,0,0,.92-1.43,2.51,2.51,0,0,0,0-1.69,1.42,1.42,0,0,0-1-.88A1.24,1.24,0,0,0,45.23,6a.87.87,0,0,0-.28,0,1.6,1.6,0,0,0-.75.53,2.86,2.86,0,0,0-.56,1.12,2.55,2.55,0,0,0,0,1.71A1.45,1.45,0,0,0,44.62,10.25Zm-.3-2.36a1.94,1.94,0,0,1,.55-1,1.2,1.2,0,0,1,.35-.16.9.9,0,0,1,.4,0,.8.8,0,0,1,.54.53,1.84,1.84,0,0,1-.06,1.12,1.77,1.77,0,0,1-.55,1,.81.81,0,0,1-.73.16A.83.83,0,0,1,44.28,9,1.81,1.81,0,0,1,44.32,7.89Zm18,18.65,2.5-1-2,2.29.25.66,3.4-1.37.42-.17-.24-.6-.17.07-2.38.95,2-2.34-.25-.63-3.8,1.54ZM66.42,29a2.88,2.88,0,0,0-1.18.07,2.56,2.56,0,0,0-1.44.86,1.55,1.55,0,0,0-.22,1.27,1.48,1.48,0,0,0,.77,1,2.41,2.41,0,0,0,1.66.11l.39-.12a2.21,2.21,0,0,0,1-.71,1.58,1.58,0,0,0,.26-1.32,1.55,1.55,0,0,0-.42-.79,1.59,1.59,0,0,0-.82-.4ZM67,30.32a.83.83,0,0,1-.18.75,1,1,0,0,1-.43.31,1.83,1.83,0,0,1-.53.19,1.75,1.75,0,0,1-1.1,0,.76.76,0,0,1-.49-.58.81.81,0,0,1,.17-.74,1.83,1.83,0,0,1,1-.53,2.11,2.11,0,0,1,1,0l.1,0A.81.81,0,0,1,67,30.32Zm-2.83,3.45.17,2.42.69-.06-.12-1.73,1.47-.11,1.89-.15,0-.7-1.84.15ZM60.25,58.72a1.14,1.14,0,0,0-.41.11,6,6,0,0,0-.64.53c-.24.21-.47-.11-.54-.19s0-.28,0-.32,0-.24,0-.44-.25-.16-.25-.16h-.1a.88.88,0,0,0-.17.1l-.17.17a1,1,0,0,0-.12.21,2.55,2.55,0,0,1-.14.24l.06,0c.14.09.18,0,.3,0s.11,0,.16.07,0,.3,0,.35a.35.35,0,0,0,0,.23c.07.09.12.09.29.1s.15.11.15.11,0,.08,0,.08-.39.49-.45.58a1.69,1.69,0,0,0-.27.41c0,.05-.18.28-.18.31a.9.9,0,0,1-.16.26c-.08.07-.06.1-.06.1s.09,0,.22,0,.34-.22.42-.35.25-.35.33-.47.31-.37.38-.47.12-.1.12-.1.13.1.13.1a2.79,2.79,0,0,1,.17.37l.11.32v.16c0,.05-.08.33-.08.37a1.64,1.64,0,0,1,0,.19c0,.1-.11.09-.13.12s-.07,0-.1,0a.76.76,0,0,1-.16,0l-.07,0v.05a.48.48,0,0,0,.18.22,1.19,1.19,0,0,0,.25,0c.08,0,.22-.06.36-.29a.66.66,0,0,0,.14-.53,3.3,3.3,0,0,0,0-.49,2.2,2.2,0,0,0-.28-.84V59.8s.05,0,.23-.21.21-.1.25-.14l.23-.19a.71.71,0,0,0,.16-.41C60.43,58.7,60.31,58.72,60.25,58.72Zm-3.66-1.81a.24.24,0,0,1-.11-.14l-.12-.13-.11,0s-.19,0-.2,0-.12,0-.15,0-.21.08-.21.19a1.14,1.14,0,0,0,0,.26,1,1,0,0,0,.15.27s.17.24.24.24.14,0,.17,0,.17,0,.17,0h.08l.12-.11a.75.75,0,0,1,.16,0s.24,0,.24,0a.64.64,0,0,0,.06-.09,1.79,1.79,0,0,1,0-.41.91.91,0,0,1,.15-.23l.11-.08a.86.86,0,0,0,0-.15,1.63,1.63,0,0,0,.09-.52s.07-.34,0-.38v-.12a.9.9,0,0,0-.14-.2.22.22,0,0,0-.1,0l-.21-.11H57s-.18,0-.22,0l-.16.15s-.08.16,0,.21a1.61,1.61,0,0,1,.16.39,3.49,3.49,0,0,1,0,.72.65.65,0,0,1,0,.16S56.72,57,56.59,56.91ZM32.08,47.08V42.56h-.71a1.54,1.54,0,0,1-.53.72,2.84,2.84,0,0,1-.73.42v.78a2.92,2.92,0,0,0,1.1-.65v3.25ZM56.46,60s-.06-.15-.08-.18l-.07-.13,0,0a1,1,0,0,0-.15.32,1.24,1.24,0,0,0,.22.89c.25.38.35.27.42.2s.32-.17.27-.37c0,0-.16-.24-.25-.35S56.49,60.06,56.46,60ZM35,46.44h0a.47.47,0,0,1-.34-.12.58.58,0,0,1-.16-.37l-.83.09a1.45,1.45,0,0,0,.41.84,1.25,1.25,0,0,0,.85.28l.09,0a1.51,1.51,0,0,0,1.11-.53,2.88,2.88,0,0,0,.45-1.78,2.7,2.7,0,0,0-.44-1.73A1.38,1.38,0,0,0,35,42.56,1.44,1.44,0,0,0,34,43a1.56,1.56,0,0,0-.4,1.1,1.44,1.44,0,0,0,.39,1.07,1.18,1.18,0,0,0,.91.41H35a1.07,1.07,0,0,0,.67-.36,2,2,0,0,1-.24,1A.54.54,0,0,1,35,46.44Zm.43-1.71a.51.51,0,0,1-.43.19.55.55,0,0,1-.42-.2,1.24,1.24,0,0,1,0-1.25.5.5,0,0,1,.4-.19h0a.58.58,0,0,1,.4.23.92.92,0,0,1,.19.65A.88.88,0,0,1,35.42,44.73ZM58,57.34a1.55,1.55,0,0,1,.41-.29c.2-.06.24,0,.24,0l0,.14,0,.14,0,.11v.12a1.59,1.59,0,0,0-.07.28v.18s.08-.17.11-.18l.13-.17s.19-.23.21-.24a.27.27,0,0,0,.09-.17c0-.11,0-.28,0-.31a.72.72,0,0,0-.15-.24.46.46,0,0,0-.22-.12c-.61-.1-1.17.64-1.48,1a7,7,0,0,0-.74,1.57,1.76,1.76,0,0,1-.07.29l0,.12c.1.06.19,0,.32-.22s.06-.23.47-1A3.83,3.83,0,0,1,58,57.34ZM39.7,57.05V53.73a16.92,16.92,0,0,0,13.95-12H48.94a12.78,12.78,0,0,1-23.87,0h-4.6a16.93,16.93,0,0,0,14,12v3.32A20.19,20.19,0,0,1,17.09,41.71H12.37A24.78,24.78,0,0,0,36.69,61.77h.75A24.79,24.79,0,0,0,61.76,41.71H57A20.18,20.18,0,0,1,39.7,57.05Zm24.86-10.3-1.65-.54-.2.66,1.64.54,1.89,2,.05-.18.19-.59-.19-.18-1.12-1.1,1.13-.16.64-.1.25-.77-.88.15ZM39.13,42.56l-.6.92-1.31,1.93v.76h1.83v.91h.81v-.91h.55v-.76h-.55V42.56Zm-.08,2.85H38l.5-.77.52-.76ZM67.21,42a2.4,2.4,0,0,0-.87-.39.86.86,0,0,0-.23,0,2.56,2.56,0,0,0-1.17,0,1.72,1.72,0,0,0-.83.48,1.75,1.75,0,0,0-.4.83,2.57,2.57,0,0,0,0,.87,2,2,0,0,0,.33.71l1.61.31.26-1.47-.68-.14-.13.78-.52-.09a1.21,1.21,0,0,1-.17-.43,1.13,1.13,0,0,1,0-.44.85.85,0,0,1,.46-.62A1.8,1.8,0,0,1,66,42.24l.31.07a1.32,1.32,0,0,1,.64.41.91.91,0,0,1,.21.76.8.8,0,0,1-.25.46.89.89,0,0,1-.54.18l0,.71a1.4,1.4,0,0,0,1-.3,1.52,1.52,0,0,0,.49-.92,1.68,1.68,0,0,0-.08-.9A1.89,1.89,0,0,0,67.21,42ZM9.73,35.45l.09-.73-.89-.39L9.08,33l.95-.19.1-.76-2.53.53-1.7.36-.08.73,1.76.82Zm-2.14-2.2.77-.15-.1.93-.67-.29-.79-.35Zm30.06,4.64V34.34h4.9L44.29,31l-3.7-.62-2.94,3.7V33l1.66-3.44-2.25-3-2.25,3L36.48,33v1.08l-2.95-3.7-3.7.62,1.75,3.36h4.9v3.55l-2.17-1.7H12v.16c0,.74,0,2.54.1,3.26H34.32l2.48,2.07h.74l2.3-2.07H62.16c.06-.72.15-2.52.15-3.26v-.16H39.84Zm4.81,8.55h0a.46.46,0,0,1-.33-.12.53.53,0,0,1-.16-.37L41.1,46a1.41,1.41,0,0,0,.43.84,1.2,1.2,0,0,0,.84.28l.09,0a1.49,1.49,0,0,0,1.11-.53A2.82,2.82,0,0,0,44,44.83a2.7,2.7,0,0,0-.44-1.73,1.38,1.38,0,0,0-1.12-.54,1.44,1.44,0,0,0-1,.42,1.56,1.56,0,0,0-.4,1.1,1.44,1.44,0,0,0,.39,1.07,1.17,1.17,0,0,0,.9.41h.15a1,1,0,0,0,.67-.36,2,2,0,0,1-.24,1A.52.52,0,0,1,42.46,46.44Zm.43-1.71a.52.52,0,0,1-.43.19.53.53,0,0,1-.42-.2,1,1,0,0,1-.18-.64.91.91,0,0,1,.16-.61.5.5,0,0,1,.4-.19h0a.58.58,0,0,1,.4.23,1,1,0,0,1,.2.65A.94.94,0,0,1,42.89,44.73ZM10.94,46a1.16,1.16,0,0,0-.47-.32,1.75,1.75,0,0,0-.68-.09l-.36.06a2.13,2.13,0,0,0-.56.15,3.13,3.13,0,0,0-.88.45,1.76,1.76,0,0,0-.51.51,1.29,1.29,0,0,0-.19.56,1.7,1.7,0,0,0,.14.72l.4,1.21,1.58-.57,2.29-.84-.43-1.22A1.57,1.57,0,0,0,10.94,46ZM9.41,47.93l-1.14.41L8.16,48A2.53,2.53,0,0,1,8,47.49a.61.61,0,0,1,.08-.37,1,1,0,0,1,.32-.33,3.13,3.13,0,0,1,.66-.32l.34-.1a1.9,1.9,0,0,1,.35-.08,1,1,0,0,1,.41,0,.44.44,0,0,1,.25.16,1.34,1.34,0,0,1,.23.44l.17.5Zm1.16-3.46-.13-.72-1-.11-.24-1.36.85-.47L10,41.06,8,42.18l-1.8,1,.13.73L8,44.13ZM8,43l.62-.33.16.94L8,43.47l-.8-.1ZM19.76,57.18a.77.77,0,0,0-.09-.2h-.21l-.21-.06s-.1.08-.1.08l0,.07-.29.22s-.4.3-.4.3a2.73,2.73,0,0,1-.4.3.67.67,0,0,1-.44.15,3.36,3.36,0,0,1-.67-.27c-.12-.08-.3-.15-.37-.19a2,2,0,0,0-.29,0,.72.72,0,0,0-.23,0c-.1,0-.1,0-.1,0v.07l0,.12a.5.5,0,0,0,.21.59c.13.08.24.08.4.16s.05.15,0,.23-.28.17-.28.17l-.3.11a4,4,0,0,1-.53.12l-.19.05-.18,0-.36.12-.15.05h-.8s-.05,0-.2-.11-.23-.07-.23-.07a.56.56,0,0,0,.33.39c.06.06.21,0,.21,0a3.51,3.51,0,0,0,1.44.14c.36-.08.89-.25.89-.25h.09v.1l0,.08v.17l-.12.67-.11.38A2.82,2.82,0,0,0,15.83,62a1.72,1.72,0,0,0,.66.89c.15.09.19,0,.19,0l.06-.14v-.2l0-.27,0-.15-.07-.2-.13-.53s0-.59,0-.65.08-.56.08-.56l.07-.13.06-.16V59.7l-.06-.11-.1-.1a.13.13,0,0,1-.11-.08A5.16,5.16,0,0,1,17.53,59a.32.32,0,0,1,.31,0,1.47,1.47,0,0,0,.5.36.62.62,0,0,0,.69,0l.06-.1L19,59.05l-.15-.2-.15-.17-.13-.07,0,0-.13-.12c-.11-.07.13-.16.13-.16a3.21,3.21,0,0,0,1.15-.79C19.8,57.38,19.75,57.24,19.76,57.18Zm-10-20.91-4.1-.14,0,.71L9.74,37Zm-.08,1.58-.69,0,.09,1.71-3.35.2,0,.7,4.05-.25ZM56.3,58.45a.43.43,0,0,1,0-.16s-.08-.14-.18-.15a.21.21,0,0,1-.19-.2.13.13,0,0,0,0-.13s-.07-.12-.13-.12l-.08-.16s-.12-.11-.16-.11h-.23s0,0,0,.15a2.21,2.21,0,0,0,.12.64,1.82,1.82,0,0,0,.41.53s.2.11.23.08a.29.29,0,0,0,.25-.09A.23.23,0,0,0,56.3,58.45Zm-2,6.11a2.92,2.92,0,0,0-.32,0l-.34,0a2.28,2.28,0,0,0-.47,0,1.44,1.44,0,0,1-.36,0h-.45l-.27,0a1.34,1.34,0,0,1-.36-.07,5.06,5.06,0,0,0-.69-.23,1.34,1.34,0,0,0-.36.06c-.09,0,0-.06,0-.06s-.08-.24-.09-.31a2.63,2.63,0,0,1-.06-.39c0-.26.29-.47.37-.52a1.05,1.05,0,0,0,.28-.22c.07-.06.07-.27.08-.35a.3.3,0,0,0,0-.2c0-.06-.11,0-.11,0l-.17.08-.15.07-.27.18a.73.73,0,0,0-.21.19l-.08-.14-.08-.17L50,62.19a.9.9,0,0,0,0-.25,3.11,3.11,0,0,0-.33-.62.34.34,0,0,0-.18-.16l-.2,0-.07,0-.13,0L49,61.2l0,.07a.84.84,0,0,1,0,.1.44.44,0,0,0,.06.12l.13.11a4.27,4.27,0,0,1,.48.88c.05.1.09.31.11.35a.43.43,0,0,1,0,.2.5.5,0,0,0,.1.24c.06,0,0,.17,0,.17a.8.8,0,0,1-.12.25,1.56,1.56,0,0,1-.14.19s-.08,0-.1.09-.13.13-.13.13c-.23.12-.24.2-.26.23a.34.34,0,0,1,0,.17.21.21,0,0,0,.07.16s.14,0,.3.09a.42.42,0,0,0,.29-.11.12.12,0,0,0,0,0,.22.22,0,0,0,.05-.08,1.79,1.79,0,0,0,.09-.19h0l.05-.06c.08-.08.13.09.16.15a.46.46,0,0,1,0,.26s0,0,0,.4a4.91,4.91,0,0,1-.07,1,4.26,4.26,0,0,1-.11.47c0,.05-.13.26-.13.29a.9.9,0,0,1-.1.09.14.14,0,0,0-.06.12s.1,0,.12,0,.07,0,.07,0,.12,0,.23-.08a1.26,1.26,0,0,0,.23-.26l0-.06a.44.44,0,0,1,0-.13c0-.08.15-.38.15-.38v-.07l0-.11.08-.17v-.19a1,1,0,0,0,0-.12s0-.09,0-.09v-.24a2.25,2.25,0,0,0-.05-.22s-.06-.38-.06-.38,0-.09.26,0l1.47.77a2.42,2.42,0,0,0,.92.18,1.45,1.45,0,0,0,.58-.25.52.52,0,0,0,.09-.15s0-.17,0-.2.06-.16.06-.16.23-.17.26-.18S54.29,64.56,54.29,64.56ZM27.14,62c-.17,0-.1-.11-.1-.11l.07-.12,0-.19,0-.15s0-.1-.06-.11a.69.69,0,0,1-.13-.07.24.24,0,0,0-.25,0,1.26,1.26,0,0,1-.19.28l-.15.22c-.09.15-.18.12-.25.13a2.14,2.14,0,0,1-.36,0h-.63c-.05,0-.23,0-.28.09a.33.33,0,0,0,0,.17.52.52,0,0,0,0,.21.24.24,0,0,0,.15.16.74.74,0,0,0,.21,0s.12,0,.14.08-.06.12-.06.12h-.07l-.08.07L25,63l-.23.17-.13.11-.18.17a1.08,1.08,0,0,0-.2.19,1.67,1.67,0,0,0-.07.24l0,.1a.59.59,0,0,0,.24.27,1.87,1.87,0,0,0,.18.07.23.23,0,0,0,.11,0,1.57,1.57,0,0,1,.4-.1c.13,0,0,.12,0,.12a.57.57,0,0,1-.08.09,1.91,1.91,0,0,1-.13.25l-.11.23a.17.17,0,0,0-.07,0l-.06,0-.29,0H24a.61.61,0,0,1-.17,0,1.07,1.07,0,0,1-.18,0L23.47,65a.1.1,0,0,0-.08,0,.21.21,0,0,0-.07.07l0,.05a.94.94,0,0,0,.28.19.83.83,0,0,0,.18.08s.32,0,.38,0a.34.34,0,0,1,.16,0c.06,0,0,0,0,.06a.45.45,0,0,1,0,.08l-.05.11a4.85,4.85,0,0,1-.28.41c0,.07-.15.15-.08.21a.14.14,0,0,1,0,.15c-.09.07-.31-.13-.44-.29a5.46,5.46,0,0,0-.87-.72s0-.14,0-.14l0-.14,0-.13-.08-.16s-.08-.27-.09-.29,0-.11,0-.11l0-.11.06-.12A.93.93,0,0,1,22.7,64l.26-.2c.18-.18.33-.11.42-.14a.45.45,0,0,0,.28-.24c.09-.14-.05-.29-.11-.36s-.32-.21-.44-.17-.16.21-.16.21a.43.43,0,0,0,0,.21.12.12,0,0,1,0,.19,1.48,1.48,0,0,1-.4.36,1.19,1.19,0,0,0-.27.21,1.45,1.45,0,0,0-.16.21c0,.07-.09.29-.05.33a.89.89,0,0,1,0,.33c0,.16-.17.12-.17.12l-.11,0,0,0a.36.36,0,0,0-.2,0c-.09.07-.11.15-.05.17a.87.87,0,0,0,.38.15,2.15,2.15,0,0,1,.85.37,1.62,1.62,0,0,1,.45.44c.05,0,.33.47.5.7a5.25,5.25,0,0,0,.53.61c.11.08.33.19.4.23l.46.18c.42.17.55.15.68,0a.21.21,0,0,0,0-.27s-.24-.19-.31-.23a3.3,3.3,0,0,1-.42-.23l-.53-.33-.24-.16,0-.06s0-.08.05,0,.15-.05.15-.05l.18-.39s.19-.42.28-.56a.24.24,0,0,1,.25-.09s.16.11.35,0a.31.31,0,0,0,.14-.33.84.84,0,0,0-.12-.1L25.36,65a.24.24,0,0,1-.09,0s0-.08,0-.08l.24-.41.14-.17.14-.15c.08-.08.15-.1.4-.14s.19-.12.19-.15a2.52,2.52,0,0,0-.24-.15s0-.13.07-.21a.38.38,0,0,0-.1-.33c-.1-.09-.16,0-.16,0a.64.64,0,0,0-.1.14s-.15.21-.15.21-.29.14-.29.14l-.17,0c-.27,0-.24-.07-.24-.07,0-.2.84-.72.93-.78a1,1,0,0,1,.71-.15c.41,0,.37.13.64.07s.27-.15.32-.24-.08-.23-.12-.32S27.14,62,27.14,62ZM44.43,66.6a.36.36,0,0,0-.2,0,2.18,2.18,0,0,1-.6.06,1.71,1.71,0,0,0-.59.09,1.54,1.54,0,0,1-.39,0c-.1,0,0-.12,0-.12a1.67,1.67,0,0,0,.41-.4c.44-.55.33-.81.33-.85s-.13-.21-.39-.32a.87.87,0,0,0-.75.13,4.43,4.43,0,0,0-.69.55,1.56,1.56,0,0,0,0,.2s.08.11.09.13l.12.08a.43.43,0,0,0,.41,0s.07-.07.11-.13,0,0,.21-.14.19,0,.19,0c0,.46-.58,1-.58,1S42,67,42,67a2.78,2.78,0,0,0-1.23.5c-.28.2-.25.3-.25.3a.4.4,0,0,0,.27.44.43.43,0,0,0,.38-.06A8.45,8.45,0,0,1,44,67.39a1.88,1.88,0,0,0,.31,0c.08,0,.13-.2.23-.31a.4.4,0,0,0,.1-.24S44.52,66.68,44.43,66.6ZM34.91,64a3.38,3.38,0,0,0-.61.33.46.46,0,0,0-.22.37c0,.07.16.06.16.06l.16,0s.16,0,.17,0,.16-.12.3-.21a2.54,2.54,0,0,1,.56-.2h.3l.23.05s.12.18.12.18a1,1,0,0,1-.12.45s0,0-.19.36a2.3,2.3,0,0,1-.7.65c-.06,0-.1,0-.13,0a.58.58,0,0,1,0-.14l.06,0s.14-.09.15-.16.15-.19.19-.17.12-.07.12-.07l.06-.1,0-.08,0-.16-.09-.06,0-.06-.11-.05-.06-.11c-.23-.27-.26-.14-.26-.14a.64.64,0,0,0,0,.21.4.4,0,0,1-.07.16,3.34,3.34,0,0,0-.48.32c0,.07-.11.15-.07.23a1.66,1.66,0,0,0,.23.16.66.66,0,0,0,.08.13.57.57,0,0,1,0,.16l0,0-.11.09-.08.07h-.22l-.09.06,0,0-.07,0v-.08l0-.12a.3.3,0,0,0,.06-.12,1.65,1.65,0,0,1,.06-.24v-.32c0-.12-.13-.22-.21-.22s-.24.07-.37.35a3,3,0,0,0-.25.73c0,.1,0,.14,0,.15s.1.08.1.08.12.17.17.22.13,0,.17-.06,0,0,.11-.06.08,0,.08,0,.16.16.2.16.13-.11.18-.11,0,.14,0,.17-.05.14-.05.14-.12.38-.12.38-.19.17-.19.17l-.1,0a.26.26,0,0,1-.2.05c-.13,0-.11,0-.12,0a.65.65,0,0,0,0,.16s.12.15.14.15.06.11.06.11a.92.92,0,0,1-.06.33.46.46,0,0,1-.07.13s-.23,0-.25,0-.19,0-.29,0H33l-.19,0s-.07,0-.11,0,0,.12,0,.12.09.13.12.17A.48.48,0,0,0,33,69l0,0h.18L34,69a1.46,1.46,0,0,1,.77.16.26.26,0,0,0,.26.16.89.89,0,0,0,.5-.22c.12-.08.09-.15.09-.15s0-.15-.2-.26a5.18,5.18,0,0,0-1.19-.25c-.1,0-.07-.24-.07-.24a.56.56,0,0,1,.12-.33c.27-.24.48-.11.64-.13s.24,0,.31-.12a.21.21,0,0,0-.08-.29.68.68,0,0,0-.29-.06l-.09,0h-.16l-.11-.06.1-.38a1.37,1.37,0,0,1,.08-.26A6.51,6.51,0,0,0,36,65.4a2.18,2.18,0,0,0,.34-.85.61.61,0,0,0-.12-.45C35.83,63.56,35.1,63.89,34.91,64Zm-1.72,2.81c0-.12-.07,0-.07,0s0,0,0,.05c-.24.26-1.29,1.38-1.38,1.49h0c-.05,0-.13.09-.15,0s0-.38.09-.48l.08-.09c.16-.21.48-.61.56-.76a1.13,1.13,0,0,0,.16-.58.81.81,0,0,0,0-.19A6.43,6.43,0,0,1,33,65.09a1.58,1.58,0,0,1,.13-.13,1.32,1.32,0,0,0,.29-.24.25.25,0,0,0,0-.37c-.06-.08-.2-.07-.29-.06H33a3.34,3.34,0,0,1-.4.1c-.05,0-.4.07-.43.09a1.75,1.75,0,0,0-.33.13.42.42,0,0,0-.15.21l0,0c0,.06.17.15.17.15a.54.54,0,0,0,.56,0,.07.07,0,0,1,.11,0s-.4,1.09-.51,1A.73.73,0,0,0,31.7,66a.66.66,0,0,0-.36.13.88.88,0,0,0-.26.64.49.49,0,0,0,.48.31.37.37,0,0,0,.14,0,1.06,1.06,0,0,0,.26-.2l-.27.48-.59,1,0,.13a.33.33,0,0,0,0,.14.5.5,0,0,0,.12.13.36.36,0,0,0,.11,0,.37.37,0,0,0,.36-.09s0,0,0,0,.23-.29.34-.42.78-1,1-1.29Zm-1.37-.16-.12.1c-.12.09-.22.14-.32,0a.43.43,0,0,1,.19-.33l.13-.07a.43.43,0,0,1,.27,0C32.05,66.32,32,66.48,31.82,66.62ZM37.06,0A37.07,37.07,0,1,0,74.12,37.06,37.06,37.06,0,0,0,37.06,0Zm0,71.42h0a34.36,34.36,0,1,1,0-68.72h0a34.36,34.36,0,0,1,0,68.72Z"/></g></g></svg>